<svg width="1751" height="803" viewBox="0 0 1751 803" fill="none" xmlns="http://www.w3.org/2000/svg">
<path d="M4.5 1.5C20.8508 114.41 30.055 158.757 46.5 223.5M71 306C112.579 438.222 134.111 483.742 162 530.5M209 599C277.879 694.543 316.074 742.518 382 799M455.5 799C525.079 733.26 570.165 695.446 637.5 577M689 508C751 439 771 355 873 337M957.5 337C1111 337 1169 739 1284.5 799M1384.5 799C1484.5 748 1562 630.5 1622 495M1655.5 415C1712.47 269.926 1734.72 187.438 1746.5 37" stroke="#eeb50a" stroke-width="8"/>
</svg>
